<svg xmlns="http://www.w3.org/2000/svg" width="97.783" height="80.778" viewBox="0 0 97.783 80.778">
  <g id="Groupe_154" data-name="Groupe 154" transform="translate(-5835.713 -2683.645)">
    <g id="Groupe_153" data-name="Groupe 153">
      <g id="Groupe_144" data-name="Groupe 144">
        <path id="Tracé_88" data-name="Tracé 88" d="M5884.6,2764.423h13.817a5.314,5.314,0,0,0,5.314-5.315v-1.062a14.879,14.879,0,0,0-14.88-14.881h-8.5a14.879,14.879,0,0,0-14.88,14.881v1.062a5.314,5.314,0,0,0,5.314,5.315h5.315a2.126,2.126,0,0,0,0-4.252h-5.315a1.063,1.063,0,0,1-1.062-1.063v-1.062a10.625,10.625,0,0,1,10.628-10.629h8.5a10.625,10.625,0,0,1,10.629,10.629v1.062a1.063,1.063,0,0,1-1.063,1.063H5884.6a2.126,2.126,0,0,0,0,4.252Z" fill="#34a07a" fill-rule="evenodd"/>
      </g>
      <g id="Groupe_145" data-name="Groupe 145">
        <path id="Tracé_89" data-name="Tracé 89" d="M5909.673,2764.423h18.509a5.313,5.313,0,0,0,5.314-5.315v-1.062a14.877,14.877,0,0,0-14.88-14.881h-8.5a14.907,14.907,0,0,0-4.464.685,2.126,2.126,0,1,0,1.276,4.056,10.635,10.635,0,0,1,3.188-.489h8.5a10.626,10.626,0,0,1,10.629,10.629v1.062a1.063,1.063,0,0,1-1.063,1.063h-18.509a2.126,2.126,0,0,0,0,4.252Z" fill="#34a07a" fill-rule="evenodd"/>
      </g>
      <g id="Groupe_146" data-name="Groupe 146">
        <path id="Tracé_90" data-name="Tracé 90" d="M5863.56,2743.85a14.907,14.907,0,0,0-4.464-.685h-8.5a14.879,14.879,0,0,0-14.88,14.881v1.062a5.314,5.314,0,0,0,5.314,5.315h18.509a2.126,2.126,0,0,0,0-4.252h-18.509a1.064,1.064,0,0,1-1.063-1.063v-1.062a10.627,10.627,0,0,1,10.629-10.629h8.5a10.642,10.642,0,0,1,3.189.489,2.126,2.126,0,0,0,1.275-4.056Z" fill="#34a07a" fill-rule="evenodd"/>
      </g>
      <g id="Groupe_147" data-name="Groupe 147">
        <path id="Tracé_91" data-name="Tracé 91" d="M5854.845,2717.657a10.629,10.629,0,1,0,10.628,10.628A10.632,10.632,0,0,0,5854.845,2717.657Zm0,4.251a6.378,6.378,0,1,1-6.378,6.377A6.379,6.379,0,0,1,5854.845,2721.908Z" fill="#34a07a" fill-rule="evenodd"/>
      </g>
      <g id="Groupe_148" data-name="Groupe 148">
        <path id="Tracé_92" data-name="Tracé 92" d="M5914.365,2717.657a10.629,10.629,0,1,0,10.628,10.628A10.632,10.632,0,0,0,5914.365,2717.657Zm0,4.251a6.378,6.378,0,1,1-6.377,6.377A6.38,6.38,0,0,1,5914.365,2721.908Z" fill="#34a07a" fill-rule="evenodd"/>
      </g>
      <g id="Groupe_149" data-name="Groupe 149">
        <path id="Tracé_93" data-name="Tracé 93" d="M5884.6,2717.657a10.629,10.629,0,1,0,10.628,10.628A10.632,10.632,0,0,0,5884.6,2717.657Zm0,4.251a6.378,6.378,0,1,1-6.378,6.377A6.379,6.379,0,0,1,5884.6,2721.908Z" fill="#34a07a" fill-rule="evenodd"/>
      </g>
      <g id="Groupe_150" data-name="Groupe 150">
        <path id="Tracé_94" data-name="Tracé 94" d="M5886.511,2684.829a2.127,2.127,0,0,0-3.813,0l-3.252,6.594-7.277,1.057a2.126,2.126,0,0,0-1.177,3.626l5.263,5.132-1.242,7.246a2.126,2.126,0,0,0,3.085,2.241l6.507-3.42,6.506,3.42a2.126,2.126,0,0,0,3.085-2.241l-1.242-7.246,5.264-5.132a2.126,2.126,0,0,0-1.178-3.626l-7.276-1.057Zm-1.906,5.746,1.843,3.733a2.124,2.124,0,0,0,1.6,1.163l4.118.6-2.98,2.906a2.117,2.117,0,0,0-.61,1.881l.7,4.1-3.686-1.937a2.126,2.126,0,0,0-1.977,0l-3.686,1.937.7-4.1a2.122,2.122,0,0,0-.61-1.881l-2.981-2.906,4.118-.6a2.129,2.129,0,0,0,1.6-1.163Z" fill="#34a07a" fill-rule="evenodd"/>
      </g>
      <g id="Groupe_151" data-name="Groupe 151">
        <path id="Tracé_95" data-name="Tracé 95" d="M5851.876,2684.829a2.128,2.128,0,0,0-3.814,0l-3.252,6.594-7.277,1.057a2.126,2.126,0,0,0-1.177,3.626l5.263,5.132-1.241,7.246a2.126,2.126,0,0,0,3.084,2.241l6.507-3.42,6.507,3.42a2.126,2.126,0,0,0,3.084-2.241l-1.241-7.246,5.263-5.132a2.126,2.126,0,0,0-1.178-3.626l-7.276-1.057Zm-1.907,5.746,1.843,3.733a2.126,2.126,0,0,0,1.6,1.163l4.118.6-2.98,2.906a2.119,2.119,0,0,0-.61,1.881l.7,4.1-3.686-1.937a2.127,2.127,0,0,0-1.977,0l-3.686,1.937.7-4.1a2.122,2.122,0,0,0-.61-1.881l-2.98-2.906,4.117-.6a2.128,2.128,0,0,0,1.6-1.163Z" fill="#34a07a" fill-rule="evenodd"/>
      </g>
      <g id="Groupe_152" data-name="Groupe 152">
        <path id="Tracé_96" data-name="Tracé 96" d="M5921.147,2684.829a2.127,2.127,0,0,0-3.813,0l-3.253,6.594-7.276,1.057a2.126,2.126,0,0,0-1.178,3.626l5.264,5.132-1.242,7.246a2.126,2.126,0,0,0,3.085,2.241l6.507-3.42,6.506,3.42a2.126,2.126,0,0,0,3.085-2.241l-1.242-7.246,5.264-5.132a2.126,2.126,0,0,0-1.178-3.626l-7.276-1.057Zm-1.906,5.746,1.843,3.733a2.126,2.126,0,0,0,1.6,1.163l4.118.6-2.981,2.906a2.122,2.122,0,0,0-.61,1.881l.7,4.1-3.686-1.937a2.127,2.127,0,0,0-1.977,0l-3.686,1.937.7-4.1a2.122,2.122,0,0,0-.61-1.881l-2.981-2.906,4.118-.6a2.128,2.128,0,0,0,1.6-1.163Z" fill="#34a07a" fill-rule="evenodd"/>
      </g>
    </g>
  </g>
</svg>
