<svg xmlns="http://www.w3.org/2000/svg" width="82.834" height="90.722" viewBox="0 0 82.834 90.722">
  <g id="Groupe_126" data-name="Groupe 126" transform="translate(-5033.642 -2673.122)">
    <g id="Groupe_119" data-name="Groupe 119">
      <path id="Tracé_76" data-name="Tracé 76" d="M5091.055,2727.767l4.184,4.184a1.972,1.972,0,0,0,2.789,0l8.368-8.368a1.972,1.972,0,0,0-2.789-2.789l-6.973,6.973-2.789-2.789a1.973,1.973,0,1,0-2.79,2.789Z" fill="#34a07a" fill-rule="evenodd"/>
    </g>
    <path id="Tracé_77" data-name="Tracé 77" d="M5088.865,2741.13v17.784a4.927,4.927,0,0,0,4.93,4.93h9.861a4.928,4.928,0,0,0,4.931-4.93V2741.13a17.75,17.75,0,1,0-19.722,0Zm15.778,1.98a17.8,17.8,0,0,1-11.834,0v15.8a.983.983,0,0,0,.986.986h9.861a.983.983,0,0,0,.987-.986Zm-5.917-30.544a13.806,13.806,0,1,1-13.806,13.806A13.812,13.812,0,0,1,5098.726,2712.566Z" fill="#34a07a" fill-rule="evenodd"/>
    <path id="Tracé_78" data-name="Tracé 78" d="M5047.448,2688.9h11.833a1.972,1.972,0,1,0,0-3.944h-11.833a1.972,1.972,0,1,0,0,3.944Z" fill="#34a07a" fill-rule="evenodd"/>
    <g id="Groupe_120" data-name="Groupe 120">
      <path id="Tracé_79" data-name="Tracé 79" d="M5047.448,2712.566H5079a1.972,1.972,0,1,0,0-3.944h-31.556a1.972,1.972,0,1,0,0,3.944Z" fill="#34a07a" fill-rule="evenodd"/>
    </g>
    <g id="Groupe_121" data-name="Groupe 121">
      <path id="Tracé_80" data-name="Tracé 80" d="M5047.448,2728.344h27.611a1.972,1.972,0,0,0,0-3.944h-27.611a1.972,1.972,0,1,0,0,3.944Z" fill="#34a07a" fill-rule="evenodd"/>
    </g>
    <g id="Groupe_122" data-name="Groupe 122">
      <path id="Tracé_81" data-name="Tracé 81" d="M5047.448,2696.788h19.722a1.972,1.972,0,1,0,0-3.944h-19.722a1.972,1.972,0,1,0,0,3.944Z" fill="#34a07a" fill-rule="evenodd"/>
    </g>
    <g id="Groupe_123" data-name="Groupe 123">
      <path id="Tracé_82" data-name="Tracé 82" d="M5047.448,2720.455h27.611a1.972,1.972,0,0,0,0-3.944h-27.611a1.972,1.972,0,1,0,0,3.944Z" fill="#34a07a" fill-rule="evenodd"/>
    </g>
    <g id="Groupe_124" data-name="Groupe 124">
      <path id="Tracé_83" data-name="Tracé 83" d="M5047.448,2736.233h15.778a1.972,1.972,0,1,0,0-3.944h-15.778a1.972,1.972,0,1,0,0,3.944Z" fill="#34a07a" fill-rule="evenodd"/>
    </g>
    <g id="Groupe_125" data-name="Groupe 125">
      <path id="Tracé_84" data-name="Tracé 84" d="M5059.281,2752.011h1.493a4.929,4.929,0,0,0,4.844-4.016l.584-3.088a.985.985,0,0,1,1.937,0l.583,3.088a4.93,4.93,0,0,0,4.844,4.016h9.382a1.973,1.973,0,0,0,0-3.945h-9.382a.985.985,0,0,1-.968-.8l-.582-3.089a4.931,4.931,0,0,0-9.692,0l-.581,3.089a.987.987,0,0,1-.969.8h-1.493a1.973,1.973,0,0,0,0,3.945Z" fill="#34a07a" fill-rule="evenodd"/>
    </g>
    <path id="Tracé_85" data-name="Tracé 85" d="M5047.448,2673.122h-8.875a4.93,4.93,0,0,0-4.931,4.93v80.862a4.93,4.93,0,0,0,4.931,4.93h44.375a1.972,1.972,0,0,0,0-3.944h-44.375a.986.986,0,0,1-.986-.986v-80.862a.986.986,0,0,1,.986-.986h8.875a1.972,1.972,0,0,0,0-3.944Zm48.32,0h-40.431a1.972,1.972,0,0,0,0,3.944h40.431a.987.987,0,0,1,.986.986v24.653a1.972,1.972,0,0,0,3.944,0v-24.653A4.93,4.93,0,0,0,5095.768,2673.122Z" fill="#34a07a" fill-rule="evenodd"/>
  </g>
</svg>
