<svg xmlns="http://www.w3.org/2000/svg" width="90.461" height="90.462" viewBox="0 0 90.461 90.462">
  <g id="Groupe_142" data-name="Groupe 142" transform="translate(-5432.207 -2673.328)">
    <g id="Groupe_128" data-name="Groupe 128">
      <circle id="Ellipse_28" data-name="Ellipse 28" cx="1.967" cy="1.967" r="1.967" transform="translate(5459.739 2724.459)" fill="#34a07a"/>
    </g>
    <g id="Groupe_129" data-name="Groupe 129">
      <circle id="Ellipse_29" data-name="Ellipse 29" cx="1.967" cy="1.967" r="1.967" transform="translate(5459.739 2712.659)" fill="#34a07a"/>
    </g>
    <g id="Groupe_130" data-name="Groupe 130">
      <circle id="Ellipse_30" data-name="Ellipse 30" cx="1.967" cy="1.967" r="1.967" transform="translate(5459.739 2736.258)" fill="#34a07a"/>
    </g>
    <g id="Groupe_131" data-name="Groupe 131">
      <circle id="Ellipse_31" data-name="Ellipse 31" cx="1.967" cy="1.967" r="1.967" transform="translate(5471.538 2712.659)" fill="#34a07a"/>
    </g>
    <g id="Groupe_132" data-name="Groupe 132">
      <circle id="Ellipse_32" data-name="Ellipse 32" cx="1.967" cy="1.967" r="1.967" transform="translate(5471.538 2736.258)" fill="#34a07a"/>
    </g>
    <g id="Groupe_133" data-name="Groupe 133">
      <circle id="Ellipse_33" data-name="Ellipse 33" cx="1.967" cy="1.967" r="1.967" transform="translate(5506.936 2712.659)" fill="#34a07a"/>
    </g>
    <g id="Groupe_134" data-name="Groupe 134">
      <circle id="Ellipse_34" data-name="Ellipse 34" cx="1.967" cy="1.967" r="1.967" transform="translate(5483.337 2724.459)" fill="#34a07a"/>
    </g>
    <g id="Groupe_135" data-name="Groupe 135">
      <circle id="Ellipse_35" data-name="Ellipse 35" cx="1.967" cy="1.967" r="1.967" transform="translate(5471.538 2724.459)" fill="#34a07a"/>
    </g>
    <g id="Groupe_136" data-name="Groupe 136">
      <circle id="Ellipse_36" data-name="Ellipse 36" cx="1.967" cy="1.967" r="1.967" transform="translate(5483.337 2712.659)" fill="#34a07a"/>
    </g>
    <g id="Groupe_137" data-name="Groupe 137">
      <circle id="Ellipse_37" data-name="Ellipse 37" cx="1.967" cy="1.967" r="1.967" transform="translate(5483.337 2736.258)" fill="#34a07a"/>
    </g>
    <g id="Groupe_138" data-name="Groupe 138">
      <circle id="Ellipse_38" data-name="Ellipse 38" cx="1.967" cy="1.967" r="1.967" transform="translate(5495.137 2736.258)" fill="#34a07a"/>
    </g>
    <g id="Groupe_139" data-name="Groupe 139">
      <circle id="Ellipse_39" data-name="Ellipse 39" cx="1.967" cy="1.967" r="1.967" transform="translate(5495.137 2712.659)" fill="#34a07a"/>
    </g>
    <g id="Groupe_140" data-name="Groupe 140">
      <circle id="Ellipse_40" data-name="Ellipse 40" cx="1.967" cy="1.967" r="1.967" transform="translate(5506.936 2724.459)" fill="#34a07a"/>
    </g>
    <g id="Groupe_141" data-name="Groupe 141">
      <circle id="Ellipse_41" data-name="Ellipse 41" cx="1.967" cy="1.967" r="1.967" transform="translate(5506.936 2736.258)" fill="#34a07a"/>
    </g>
    <path id="Tracé_86" data-name="Tracé 86" d="M5459.935,2681.2h-7.079a4.916,4.916,0,0,0-4.917,4.916v61.946h-10.816a4.917,4.917,0,0,0-4.916,4.917v.983a9.834,9.834,0,0,0,9.833,9.833h70.8a9.83,9.83,0,0,0,9.832-9.833v-67.846a4.913,4.913,0,0,0-4.916-4.916h-7.08a55.219,55.219,0,0,1-25.368-7.867,9.831,9.831,0,0,1-15.733,0A9.844,9.844,0,0,0,5459.935,2681.2Zm0,3.933h-7.079a.983.983,0,0,0-.983.983v14.749h9.832a1.966,1.966,0,1,1,0,3.933h-9.832v43.264h50.147a4.917,4.917,0,0,1,4.916,4.917v.983a5.9,5.9,0,0,0,11.8,0v-49.164h-49.164a1.966,1.966,0,0,1,0-3.933h49.164v-14.749a.979.979,0,0,0-.983-.983h-22.279a5.9,5.9,0,0,0,5.563,3.933,1.966,1.966,0,1,1,0,3.933,9.844,9.844,0,0,1-9.636-7.866h-11.659a5.9,5.9,0,0,0,5.563,3.933,1.966,1.966,0,0,1,0,3.933,9.843,9.843,0,0,1-9.636-7.866h-11.66a5.9,5.9,0,0,0,5.563,3.933,1.966,1.966,0,1,1,0,3.933A9.844,9.844,0,0,1,5459.935,2685.128Zm42.085,66.862h-64.9a.984.984,0,0,0-.983.984v.983a5.9,5.9,0,0,0,5.9,5.9h62.929a9.839,9.839,0,0,1-1.966-5.9v-.983a.98.98,0,0,0-.983-.984Zm4.58-70.795a5.9,5.9,0,0,0-11.127,0Zm-15.733,0a5.9,5.9,0,0,0-11.126,0Zm-15.732,0a5.9,5.9,0,0,0-11.127,0Z" fill="#34a07a" fill-rule="evenodd"/>
    <path id="Tracé_87" data-name="Tracé 87" d="M5497.1,2720.526a5.9,5.9,0,1,0,5.9,5.9A5.9,5.9,0,0,0,5497.1,2720.526Zm0,3.933a1.967,1.967,0,1,1-1.966,1.966A1.967,1.967,0,0,1,5497.1,2724.459Z" fill="#34a07a" fill-rule="evenodd"/>
  </g>
</svg>
