<svg xmlns="http://www.w3.org/2000/svg" width="94.312" height="94.312" viewBox="0 0 94.312 94.312">
  <g id="Groupe_117" data-name="Groupe 117" transform="translate(-4622.028 -2672.084)">
    <path id="Tracé_74" data-name="Tracé 74" d="M4680.123,2733.082l2.659,2.66-.476.476a5.131,5.131,0,0,0,0,7.261l20.615,20.615a7.862,7.862,0,0,0,11.117,0h0a7.864,7.864,0,0,0,0-11.118l-20.615-20.614a5.128,5.128,0,0,0-7.261,0l-.476.476-2.659-2.659a34.934,34.934,0,1,0-2.9,2.9Zm5.087,7.494a1.026,1.026,0,0,1,0-1.454l3.856-3.857a1.026,1.026,0,0,1,1.454,0l20.615,20.615a3.756,3.756,0,0,1,0,5.308l0,0a3.755,3.755,0,0,1-5.309,0Zm-28.273-64.385a30.8,30.8,0,1,1-30.8,30.8A30.815,30.815,0,0,1,4656.937,2676.191Z" fill="#34a07a" fill-rule="evenodd"/>
    <path id="Tracé_75" data-name="Tracé 75" d="M4674.363,2721.361a18.563,18.563,0,0,0-10.446-10.949,10.267,10.267,0,1,0-13.96,0,18.56,18.56,0,0,0-10.446,10.949,22.578,22.578,0,0,1-.985-27.451,2.053,2.053,0,0,0-3.343-2.384,26.7,26.7,0,1,0,6.287-6.288,2.053,2.053,0,1,0,2.385,3.343,22.585,22.585,0,0,1,30.508,32.78Zm-3.341,3.286a14.377,14.377,0,0,0-28.17,0,22.571,22.571,0,0,0,28.17,0Zm-14.085-27.921a6.16,6.16,0,1,1-6.16,6.16A6.162,6.162,0,0,1,4656.937,2696.726Z" fill="#34a07a" fill-rule="evenodd"/>
  </g>
</svg>
